<svg width="54" height="54" viewBox="0 0 54 54" fill="none" xmlns="http://www.w3.org/2000/svg">
<path d="M26.946 27H0.604796C0.183745 27.4705 -0.0350198 28.0959 0.00453093 28.7258C0.53723 37.16 5.00317 44.8152 11.9818 49.471C12.4869 49.808 13.1304 49.9493 13.7731 49.8146C13.7731 49.815 13.7731 49.8154 13.7736 49.8159L26.946 27Z" fill="#FFA000"/>
<path d="M13.7731 4.18414C13.7731 4.18455 13.7731 4.18455 13.7727 4.18496C13.1556 4.0556 12.5059 4.17919 11.9818 4.52897C5.00935 9.18113 0.537642 16.833 0.00453093 25.2742C-0.0350198 25.9041 0.183745 26.5295 0.604796 27H26.946L13.7731 4.18414Z" fill="#FFA000"/>
<path d="M40.1189 4.18419C39.9232 3.58558 39.4939 3.08419 38.9312 2.80486C31.3992 -0.933512 22.4995 -0.936396 14.9613 2.80486C14.3981 3.08419 13.9693 3.58558 13.7736 4.18419L26.946 27.0001L40.1189 4.18419Z" fill="#FFA000"/>
<path d="M13.7736 49.8159C13.9693 50.4145 14.3981 50.9159 14.9613 51.1952C22.4929 54.9332 31.393 54.9364 38.9312 51.1952C40.1519 50.5896 40.6009 49.0693 39.9199 47.889L28.3159 27.791L26.946 27L13.7736 49.8159Z" fill="#FFA000"/>
<path d="M53.8875 25.2742C53.3552 16.8396 48.8889 9.18484 41.9106 4.52897C41.3866 4.17919 40.7369 4.0556 40.1193 4.18496C40.1193 4.18455 40.1189 4.18414 40.1189 4.18414L26.946 27L28.3159 27.791H51.5186C52.8852 27.791 53.9736 26.6358 53.8875 25.2742Z" fill="#FFA000"/>
<path d="M21.5103 27L9.57953 47.6649C10.3466 48.3113 11.1488 48.9153 11.9818 49.471C12.4869 49.808 13.1304 49.9493 13.7727 49.8146C13.7731 49.815 13.7731 49.8154 13.7731 49.8159L26.946 27H21.5103Z" fill="#F57C00"/>
<path d="M13.7731 4.18414C13.7731 4.18455 13.7731 4.18455 13.7727 4.18496C13.1556 4.0556 12.5059 4.17919 11.9818 4.52897C11.7383 4.69129 11.4986 4.85856 11.2608 5.02912L22.7281 24.891H0.034606C0.0247183 25.0187 0.0127707 25.1465 0.00453093 25.2742C-0.0350198 25.9041 0.183745 26.5295 0.604796 27H26.946L13.7731 4.18414Z" fill="#F57C00"/>
<path d="M38.9312 2.80479C37.8291 2.25809 36.7019 1.79254 35.5533 1.40527C35.7024 1.60756 35.8219 1.8325 35.901 2.07475L24.2281 22.2926L26.946 27L40.1189 4.18413C39.9232 3.58551 39.4939 3.08412 38.9312 2.80479Z" fill="#F57C00"/>
<path d="M39.9199 47.8894L28.3159 27.791L26.946 27L25.9025 28.8074L35.702 45.78C36.383 46.96 35.9335 48.4802 34.7132 49.0862C28.0543 52.3912 20.573 52.6623 14.1213 50.4857C14.3405 50.7828 14.6264 51.0292 14.9613 51.1952C18.7055 53.0537 22.738 53.9959 26.9464 53.9959C31.1549 53.9959 35.187 53.0537 38.9312 51.1952C40.1519 50.5896 40.6009 49.0693 39.9199 47.8894Z" fill="#F57C00"/>
<path d="M53.8875 25.2742C53.3552 16.8396 48.8889 9.18484 41.9106 4.52897C41.3866 4.17919 40.7369 4.0556 40.1193 4.18496C40.1193 4.18455 40.1189 4.18414 40.1189 4.18414L40.0946 4.22616C45.8043 9.03735 49.209 15.8706 49.6696 23.1652C49.7553 24.5264 48.6672 25.6816 47.3003 25.6816H27.7074L26.946 27L28.3159 27.791H51.5186C52.8852 27.791 53.9736 26.6358 53.8875 25.2742Z" fill="#F57C00"/>
<path d="M5.08722 27C5.08722 28.3072 4.78235 29.6248 5.0007 30.8698C5.22482 32.1498 5.96516 33.284 6.39981 34.478C6.84228 35.6938 7.0079 37.0368 7.64731 38.1418C8.29289 39.2574 9.37683 40.0699 10.2008 41.0508C11.0273 42.0342 11.6407 43.2422 12.6241 44.0682C13.6051 44.8922 14.8995 45.2881 16.0148 45.9333L26.946 27H5.08722Z" fill="#FFE082"/>
<path d="M21.5103 27L12.009 43.4572C12.1998 43.6756 12.4025 43.882 12.6241 44.0682C13.6051 44.8922 14.8995 45.2881 16.0148 45.9333L26.946 27H21.5103Z" fill="#FFCA28"/>
<path d="M16.0148 45.9333C17.116 46.5694 18.1068 47.4997 19.3239 47.9426C20.5182 48.3772 21.8687 48.3059 23.1492 48.53C24.3942 48.7484 25.6388 49.2807 26.946 49.2807C28.2537 49.2807 29.4983 48.7484 30.7433 48.53C32.0234 48.3059 33.3743 48.3772 34.5686 47.9426C35.1689 47.7238 35.7139 47.3872 36.2446 47.0251C37.1592 46.4017 37.4431 45.1826 36.8898 44.224C34.2011 39.5668 26.946 27 26.946 27L16.0148 45.9333Z" fill="#FFE082"/>
<path d="M26.946 27L25.446 29.5984L33.6594 43.8243C32.273 44.6776 31.4808 45.422 30.3507 45.8336C29.1563 46.2682 27.8054 46.197 26.525 46.4211C25.28 46.639 24.0353 47.1717 22.7281 47.1717C21.4209 47.1717 20.1763 46.639 18.9312 46.4211C18.0739 46.2711 17.1848 46.253 16.3328 46.1269C17.3134 46.7482 18.2259 47.5429 19.3239 47.9426C20.5182 48.3772 21.8691 48.3059 23.1496 48.5305C24.3942 48.7484 25.6388 49.2807 26.9464 49.2807C28.2537 49.2807 29.4983 48.7484 30.7433 48.5305C32.0234 48.3059 33.3743 48.3772 34.5686 47.9426C35.1689 47.7242 35.7139 47.3872 36.2446 47.0255C37.1592 46.4017 37.4435 45.1826 36.8902 44.2244C34.2011 39.5668 26.946 27 26.946 27V27Z" fill="#FFCA28"/>
<path d="M16.0148 8.06665C14.8995 8.71182 13.6051 9.10774 12.6241 9.93172C11.6403 10.7578 11.0268 11.9657 10.2008 12.9495C9.37683 13.9305 8.29248 14.7429 7.64731 15.8582C7.0079 16.9631 6.84228 18.3066 6.39981 19.522C5.96516 20.7163 5.22482 21.8501 5.0007 23.1301C4.78235 24.3752 5.08722 25.6927 5.08722 26.9999H26.946L16.0148 8.06665Z" fill="#FFE082"/>
<path d="M16.0148 8.06665C15.2695 8.49759 14.4443 8.81812 13.6858 9.22887L20.9018 21.7273C21.7134 23.1334 20.6987 24.891 19.075 24.891H4.95168C4.99947 25.5881 5.08722 26.2954 5.08722 26.9999H26.946L16.0148 8.06665Z" fill="#FFCA28"/>
<path d="M34.5686 6.0575C33.3743 5.62285 32.0234 5.69412 30.7433 5.47C29.4983 5.25165 28.2537 4.71936 26.946 4.71936C25.6388 4.71936 24.3942 5.25165 23.1492 5.47C21.8691 5.69412 20.5182 5.62285 19.3239 6.0575C18.1085 6.49997 17.1205 7.42694 16.0156 8.06635C16.0152 8.06635 16.0152 8.06676 16.0152 8.06676L26.946 27L37.8773 8.06676L37.8769 8.06635C36.7719 7.42694 35.784 6.49997 34.5686 6.0575Z" fill="#FFE082"/>
<path d="M37.8769 8.06628C36.7719 7.42688 35.784 6.49991 34.5686 6.05743C34.2971 5.95856 34.017 5.88728 33.7319 5.83167L24.2281 22.2926L26.946 27L37.8773 8.0667L37.8769 8.06628Z" fill="#FFCA28"/>
<path d="M47.208 26.9999C48.088 26.9999 48.8217 26.3263 48.8967 25.4488C48.9643 24.6619 49.0236 23.8828 48.8918 23.1301C48.6676 21.8501 47.9269 20.7159 47.4922 19.522C47.0498 18.3062 46.8846 16.9631 46.2452 15.8577C45.5996 14.7425 44.5156 13.9301 43.6917 12.9491C42.8652 11.9653 42.2518 10.7578 41.2679 9.93172C40.2874 9.10774 38.993 8.71182 37.8773 8.06665L26.946 26.9999H37.5967V32.2791C37.5963 33.3586 38.4714 34.2332 39.5508 34.2332C40.7991 34.2332 41.6251 33.2741 41.6251 32.219V31.4935C41.6251 30.8005 42.1871 30.239 42.8801 30.239C43.573 30.239 44.135 30.8005 44.135 31.4935V37.1307C44.135 37.9794 44.823 38.6674 45.6713 38.6674C46.52 38.6674 47.208 37.9794 47.208 37.1307V26.9999Z" fill="#FFE082"/>
<path d="M48.8918 23.1301C48.6676 21.8501 47.9269 20.7159 47.4922 19.522C47.0498 18.3062 46.8846 16.9631 46.2452 15.8577C45.5996 14.7425 44.5156 13.9301 43.6917 12.9491C42.8652 11.9653 42.2518 10.7578 41.2679 9.93172C40.2874 9.10774 38.993 8.71182 37.8773 8.06665L37.6655 8.43373C38.321 9.18314 38.8335 10.0784 39.4733 10.8401C40.2973 11.8211 41.3817 12.6335 42.0268 13.7488C42.6662 14.8537 42.8318 16.1972 43.2743 17.4126C43.709 18.6069 44.4497 19.7407 44.6738 21.0212C44.6759 21.0335 44.678 21.0459 44.68 21.0587C45.0154 23.0696 43.4317 24.891 41.3932 24.891H28.1639L26.946 26.9999H42.9901V30.2443C43.6315 30.3 44.135 30.8376 44.135 31.4935V37.1311C44.135 37.9798 44.823 38.6674 45.6713 38.6674C46.52 38.6674 47.208 37.9794 47.208 37.1311V26.9999C48.0876 26.9999 48.8217 26.3263 48.8967 25.4488C48.9643 24.6619 49.0236 23.8828 48.8918 23.1301Z" fill="#FFCA28"/>
<path d="M27.7284 42.1987C27.7284 43.9302 26.3248 45.3335 24.5936 45.3335C22.862 45.3335 21.4584 43.9302 21.4584 42.1987C21.4584 40.4671 22.862 39.0638 24.5936 39.0638C26.3248 39.0638 27.7284 40.4671 27.7284 42.1987Z" fill="#EF5350"/>
<path d="M17.954 37.2272C17.954 38.9588 16.5508 40.3624 14.8192 40.3624C13.0876 40.3624 11.6844 38.9588 11.6844 37.2272C11.6844 35.496 13.0876 34.0924 14.8192 34.0924C16.5508 34.0924 17.954 35.496 17.954 37.2272Z" fill="#EF5350"/>
<path d="M20.5339 21.0794C20.5339 22.811 19.1302 24.2146 17.3986 24.2146C15.6675 24.2146 14.2638 22.811 14.2638 21.0794C14.2638 19.3482 15.6675 17.9446 17.3986 17.9446C19.1302 17.9446 20.5339 19.3482 20.5339 21.0794Z" fill="#EF5350"/>
<path d="M27.1162 10.4562C27.1162 12.1878 25.7125 13.5914 23.981 13.5914C22.2494 13.5914 20.8461 12.1878 20.8461 10.4562C20.8461 8.72505 22.2494 7.32141 23.981 7.32141C25.7125 7.32141 27.1162 8.72505 27.1162 10.4562Z" fill="#EF5350"/>
<path d="M40.8873 14.3368C40.8873 15.2024 40.1852 15.9044 39.3197 15.9044C38.4541 15.9044 37.752 15.2024 37.752 14.3368C37.752 13.4708 38.4541 12.7692 39.3197 12.7692C40.1852 12.7692 40.8873 13.4708 40.8873 14.3368Z" fill="#FF6F00"/>
<path d="M35.8425 22.4776C35.8425 23.3432 35.1409 24.0453 34.2749 24.0453C33.4093 24.0453 32.7077 23.3432 32.7077 22.4776C32.7077 21.6121 33.4093 20.91 34.2749 20.91C35.1409 20.91 35.8425 21.6121 35.8425 22.4776Z" fill="#FF6F00"/>
<path d="M34.0034 9.63385C34.0034 10.4998 33.3018 11.2015 32.4358 11.2015C31.5702 11.2015 30.8686 10.4998 30.8686 9.63385C30.8686 8.76826 31.5702 8.06665 32.4358 8.06665C33.3018 8.06665 34.0034 8.76826 34.0034 9.63385Z" fill="#FF6F00"/>
<path d="M28.5136 18.3071C28.5136 19.1727 27.812 19.8743 26.946 19.8743C26.0804 19.8743 25.3788 19.1727 25.3788 18.3071C25.3788 17.4411 26.0804 16.7395 26.946 16.7395C27.812 16.7395 28.5136 17.4411 28.5136 18.3071Z" fill="#FF6F00"/>
<path d="M10.9486 23.1105C10.9486 23.976 10.2469 24.6777 9.38095 24.6777C8.51537 24.6777 7.81375 23.976 7.81375 23.1105C7.81375 22.2445 8.51537 21.5428 9.38095 21.5428C10.2469 21.5428 10.9486 22.2445 10.9486 23.1105Z" fill="#FF6F00"/>
<path d="M19.9513 30.546C19.9513 31.412 19.2493 32.1136 18.3837 32.1136C17.5177 32.1136 16.8161 31.412 16.8161 30.546C16.8161 29.6804 17.5177 28.9788 18.3837 28.9788C19.2493 28.9788 19.9513 29.6804 19.9513 30.546Z" fill="#FF6F00"/>
<path d="M16.3225 13.1515C16.0799 12.3205 15.2093 11.8438 14.3784 12.0869C13.5474 12.3295 13.0707 13.2001 13.3134 14.0311C13.5564 14.862 14.427 15.3387 15.2579 15.0956C16.0889 14.853 16.5656 13.9824 16.3225 13.1515Z" fill="#FF6F00"/>
<path d="M11.513 31.7024C11.513 32.5684 10.8114 33.27 9.94579 33.27C9.07979 33.27 8.37817 32.5684 8.37817 31.7024C8.37817 30.8368 9.07979 30.1348 9.94579 30.1348C10.8114 30.1348 11.513 30.8368 11.513 31.7024Z" fill="#FF6F00"/>
<path d="M33.5906 43.7662C33.5906 44.6318 32.8885 45.3338 32.0229 45.3338C31.1574 45.3338 30.4553 44.6318 30.4553 43.7662C30.4553 42.9002 31.1574 42.1986 32.0229 42.1986C32.8885 42.1986 33.5906 42.9002 33.5906 43.7662Z" fill="#FF6F00"/>
<path d="M28.5136 34.8376C28.5136 35.7032 27.812 36.4052 26.946 36.4052C26.0804 36.4052 25.3788 35.7032 25.3788 34.8376C25.3788 33.9716 26.0804 33.27 26.946 33.27C27.812 33.27 28.5136 33.9716 28.5136 34.8376Z" fill="#FF6F00"/>
<path d="M45.1188 21.2903C45.1188 23.0219 43.7151 24.4256 41.984 24.4256C40.2524 24.4256 38.8488 23.0219 38.8488 21.2903C38.8488 19.5592 40.2524 18.1555 41.984 18.1555C43.7151 18.1555 45.1188 19.5592 45.1188 21.2903Z" fill="#EF5350"/>
<path d="M25.2462 39.1322C25.4843 39.5739 25.6194 40.0794 25.6194 40.617C25.6194 42.6061 23.7873 44.0975 21.832 43.6834C22.3614 44.6656 23.3992 45.3334 24.5936 45.3334C26.3252 45.3334 27.7284 43.9302 27.7284 42.1986C27.7284 40.6912 26.6642 39.4325 25.2462 39.1322Z" fill="#D32F2F"/>
<path d="M15.4718 34.1608C15.7099 34.6028 15.845 35.1083 15.845 35.6456C15.845 37.3767 14.4414 38.7804 12.7102 38.7804C12.4865 38.7804 12.2682 38.7565 12.0576 38.712C12.587 39.6946 13.6248 40.3624 14.8192 40.3624C16.5508 40.3624 17.954 38.9588 17.954 37.2272C17.954 35.7197 16.8898 34.4611 15.4718 34.1608V34.1608Z" fill="#D32F2F"/>
<path d="M18.0512 18.0129C18.2894 18.455 18.4249 18.9605 18.4249 19.4977C18.4249 21.2293 17.0213 22.6326 15.2897 22.6326C15.066 22.6326 14.8476 22.6087 14.6371 22.5642C15.1665 23.5468 16.2047 24.2146 17.3986 24.2146C19.1302 24.2146 20.5339 22.8109 20.5339 21.0794C20.5339 19.5719 19.4693 18.3133 18.0512 18.0129Z" fill="#D32F2F"/>
<path d="M24.6335 7.38977C24.8717 7.83183 25.0072 8.33734 25.0072 8.87457C25.0072 10.6057 23.6036 12.0094 21.872 12.0094C21.6483 12.0094 21.4299 11.9855 21.2194 11.941C21.7488 12.9236 22.787 13.5914 23.981 13.5914C25.7125 13.5914 27.1162 12.1878 27.1162 10.4562C27.1162 8.94873 26.0516 7.69011 24.6335 7.38977Z" fill="#D32F2F"/>
<path d="M42.6362 18.2239C42.8743 18.6659 43.0098 19.1714 43.0098 19.7087C43.0098 21.4398 41.6062 22.8435 39.8746 22.8435C39.6509 22.8435 39.433 22.8196 39.222 22.7751C39.7514 23.7577 40.7896 24.4255 41.984 24.4255C43.7151 24.4255 45.1188 23.0219 45.1188 21.2903C45.1188 19.7828 44.0546 18.5242 42.6362 18.2239Z" fill="#D32F2F"/>
</svg>
