<svg width="49" height="48" viewBox="0 0 49 48" fill="none" xmlns="http://www.w3.org/2000/svg">
<path d="M32.2325 47.9695H17.3559C8.22667 47.9695 0.826477 40.5692 0.826477 31.4401H48.7619C48.7619 40.5693 41.3617 47.9695 32.2325 47.9695Z" fill="#E5E5E5"/>
<path d="M38.7037 8.2988H38.0177L40.1897 6.1268C41.5146 4.84489 41.6609 2.77051 40.5286 1.31594C39.2996 -0.181582 37.0888 -0.398154 35.5921 0.830799C35.5036 0.903561 35.4186 0.980418 35.3375 1.06137L33.0589 3.33994V2.65394C33.0887 1.29937 32.0622 0.152989 30.7126 0.0340368C29.3456 -0.039487 28.1769 1.00927 28.1034 2.37708C28.1009 2.42251 28.1001 2.46804 28.1001 2.51347V6.64585C28.1017 5.27642 26.9934 4.1648 25.624 4.16308C25.5786 4.16308 25.533 4.16394 25.4876 4.16642C24.138 4.28623 23.1115 5.43175 23.1412 6.78632V10.7782C23.1429 9.4088 22.0346 8.29718 20.6651 8.29547C20.6197 8.29547 20.5742 8.29632 20.5288 8.2988C19.1791 8.41785 18.1527 9.56413 18.1824 10.9187V23.1753H32.2324C33.6018 23.1753 34.7118 22.0653 34.7118 20.6958C34.7118 19.3264 33.6018 18.2164 32.2324 18.2164H36.2243C37.5789 18.2461 38.7252 17.2197 38.8442 15.87C38.9177 14.5031 37.8689 13.3344 36.5011 13.2609C36.4557 13.2584 36.4102 13.2576 36.3648 13.2576H38.8442C40.2136 13.2592 41.3252 12.1509 41.3269 10.7815C41.3269 10.736 41.3261 10.6905 41.3236 10.6451C41.2047 9.29547 40.0583 8.26899 38.7037 8.2988Z" fill="#88B337"/>
<path d="M36.9491 5.57714L35.7805 4.40857L32.2325 7.95657V5.81933H30.5795V9.60952L27.2736 12.9154V9.95171H25.6207V14.5684L22.3148 17.8743V14.0841H20.6618V19.5272L12.6392 27.5498L13.8079 28.7184L21.8305 20.6958H27.2736V19.0429H23.4834L26.7893 15.7369H31.406V14.0841H28.4423L31.7481 10.7782H35.5384V9.12524H33.4011L36.9491 5.57714Z" fill="#6B962A"/>
<path fill-rule="evenodd" clip-rule="evenodd" d="M5.55057 9.12526C5.55305 11.4063 7.40191 13.2552 9.68295 13.2576C11.964 13.2552 13.8129 11.4063 13.8153 9.12516V8.71192L14.5385 8.16897C16.1534 6.95821 16.5402 4.69783 15.4211 3.0184C15.3823 2.95973 15.3411 2.90183 15.2989 2.84564C14.0393 1.16621 11.6558 0.825734 9.97638 2.08611L9.68295 2.30678L9.38876 2.08611C7.70934 0.826591 5.32591 1.16707 4.06629 2.8465C2.80667 4.52592 3.14724 6.90945 4.82657 8.16907L5.55057 8.71202V9.12526ZM6.74572 3.01011C6.868 2.98869 6.99115 2.97792 7.11515 2.97792C7.57715 2.97878 8.02591 3.13002 8.39372 3.4084L9.18381 4.00097C9.4781 4.22164 9.88143 4.22164 10.1756 4.00097L10.9649 3.4084C11.9145 2.69602 13.2609 2.88859 13.9732 3.83821C14.6856 4.78783 14.493 6.13421 13.5434 6.84659L12.4897 7.63754C12.2814 7.79373 12.1591 8.03831 12.1591 8.29869V9.12516C12.1591 10.4946 11.0491 11.6046 9.67972 11.6046C8.31029 11.6046 7.20029 10.4946 7.20029 9.12516V8.29869C7.20029 8.0384 7.078 7.79373 6.86972 7.63754L5.816 6.84659C4.90438 6.16145 4.68705 4.88373 5.3201 3.93573C5.64572 3.4424 6.16219 3.10678 6.74572 3.01011Z" fill="#6B962A"/>
<path d="M44.6295 10.7783V9.12536C45.5428 9.12536 46.2825 8.38565 46.2825 7.47241C46.2825 6.55917 45.5428 5.81946 44.6295 5.81946V4.1665C46.4552 4.1665 47.9354 5.64669 47.9354 7.47241C47.9354 9.29812 46.4552 10.7783 44.6295 10.7783Z" fill="#DE4C3C"/>
<rect x="18.1824" y="0.0340576" width="1.65295" height="1.65295" fill="#DE4C3C"/>
<rect x="23.1412" y="26.4812" width="1.65295" height="1.65295" fill="#DE4C3C"/>
<rect x="1.65295" y="11.6047" width="1.65295" height="1.65295" fill="#DE4C3C"/>
<rect y="8.29883" width="1.65295" height="1.65295" fill="#DE4C3C"/>
<path d="M35.5384 28.9607H33.8854C33.8854 28.0475 33.1457 27.3077 32.2325 27.3077C31.3192 27.3077 30.5795 28.0475 30.5795 28.9607H28.9266C28.9266 27.135 30.4068 25.6548 32.2325 25.6548C34.0582 25.6548 35.5384 27.135 35.5384 28.9607Z" fill="#FDB62F"/>
<path d="M9.91772 19.0429H9.09124C9.09124 17.6735 7.98124 16.5635 6.61181 16.5635C5.24238 16.5635 4.13238 17.6735 4.13238 19.0429H3.30591C1.93648 19.0429 0.826477 20.1529 0.826477 21.5223C0.826477 22.8918 1.93648 24.0018 3.30591 24.0018H9.91772C11.2871 24.0018 12.3971 22.8919 12.3971 21.5223C12.397 20.1529 11.2871 19.0429 9.91772 19.0429Z" fill="#88B337"/>
<rect x="4.95885" y="24.0018" width="3.3059" height="3.3059" fill="#638724"/>
<path fill-rule="evenodd" clip-rule="evenodd" d="M38.8442 23.1753C38.8442 20.4363 41.0641 18.2164 43.803 18.2164C46.542 18.2164 48.7619 20.4363 48.7619 23.1753C48.7619 25.9142 46.542 28.1341 43.803 28.1341C41.0641 28.1341 38.8442 25.9142 38.8442 23.1753ZM41.3236 23.1753C41.3236 24.5447 42.4336 25.6547 43.803 25.6547C45.1726 25.6547 46.2825 24.5448 46.2825 23.1753C46.2825 21.8059 45.1725 20.6959 43.803 20.6959C42.4335 20.6959 41.3236 21.8059 41.3236 23.1753Z" fill="#E5E5E5"/>
<path d="M37.3351 31.4401C30.8059 40.0668 21.2097 44.9397 13.8359 47.5852C14.9921 47.8389 16.1724 47.9679 17.3558 47.9695H32.2323C41.3616 47.9695 48.7619 40.5693 48.7619 31.4401H37.3351Z" fill="#DEDEDE"/>
</svg>
