<svg width="44" height="44" viewBox="0 0 44 44" fill="none" xmlns="http://www.w3.org/2000/svg">
<path d="M31.0619 20.2573C28.7535 20.2573 28.7535 22.1167 26.445 22.1167C24.1368 22.1167 24.1368 20.2573 21.8285 20.2573C19.5201 20.2573 19.5201 22.1167 17.2118 22.1167C14.9034 22.1167 14.9034 20.2573 12.5949 20.2573C10.2866 20.2573 10.2865 22.1167 7.97818 22.1167C6.03419 22.1167 5.72662 20.7987 4.29971 20.3824C3.87063 20.2572 3.46079 20.6275 3.55309 21.0649L7.53337 39.9336C8.03335 42.3037 10.1248 44.0001 12.5471 44.0001H31.109C33.5314 44.0001 35.6229 42.3038 36.1228 39.9336L40.1033 21.0642C40.1931 20.6386 39.8022 20.2569 39.3836 20.3745C37.9336 20.7821 37.6345 22.1166 35.6786 22.1166C33.3703 22.1167 33.3703 20.2573 31.0619 20.2573Z" fill="#7F7FBF"/>
<path d="M24.3393 29.3472C23.3194 29.3472 22.4115 29.8263 21.8281 30.5717C21.2448 29.8263 20.3369 29.3472 19.317 29.3472C17.5569 29.3472 16.13 30.774 16.13 32.5342C16.13 36.5382 21.8281 38.768 21.8281 38.768C21.8281 38.768 27.5263 36.5382 27.5263 32.5342C27.5263 30.774 26.0994 29.3472 24.3393 29.3472Z" fill="white"/>
<path d="M39.3837 20.3745C37.9337 20.782 37.6346 22.1166 35.6787 22.1166C35.4849 22.1166 35.3086 22.1025 35.1447 22.0785L35.0133 22.7015C34.887 22.6923 34.7563 22.6868 34.6188 22.6868C31.4212 22.6868 31.4212 25.2624 28.2236 25.2624C25.0261 25.2624 25.0261 22.6868 21.8287 22.6868C18.6313 22.6868 18.6313 25.2624 15.4338 25.2624C12.2361 25.2624 12.2361 22.6868 9.03848 22.6868C6.55102 22.6868 5.99819 24.2452 4.3701 24.9374L4.73903 26.6862C6.09822 25.9363 6.74842 24.6155 9.03848 24.6155C12.2361 24.6155 12.2361 27.191 15.4338 27.191C18.6313 27.191 18.6313 24.6155 21.8287 24.6155C25.0262 24.6155 25.0262 27.191 28.2236 27.191C31.418 27.191 31.4215 24.6209 34.6095 24.6157L31.3783 39.9336C30.8782 42.3037 28.7868 44 26.3643 44H31.109C33.5314 44 35.6229 42.3037 36.1229 39.9335L40.1033 21.0641C40.1931 20.6386 39.8024 20.2568 39.3837 20.3745Z" fill="#7272AF"/>
<path d="M2.64327 25.2624C5.84083 25.2624 5.84083 22.6868 9.03831 22.6868C12.236 22.6868 12.236 25.2624 15.4336 25.2624C18.6311 25.2624 18.6311 22.6868 21.8286 22.6868C25.026 22.6868 25.026 25.2624 28.2234 25.2624C31.4211 25.2624 31.4211 22.6868 34.6186 22.6868C37.8161 22.6868 37.8161 25.2624 41.0136 25.2624C41.0196 25.2624 41.0255 25.2624 41.0316 25.2624C41.9275 25.2596 42.7127 24.6699 42.9967 23.8202C43.3842 22.6613 43.5944 21.4212 43.5944 20.1319C43.5944 14.9254 40.1735 10.5181 35.4568 9.03452C33.2118 3.7253 27.9551 0 21.8281 0C15.7011 0 10.4444 3.7253 8.1993 9.03444C3.48262 10.5181 0.0617065 14.9253 0.0617065 20.1319C0.0617065 21.4427 0.278957 22.7025 0.678824 23.8781C0.958894 24.7014 1.7374 25.2569 2.607 25.2624C2.61903 25.2624 2.63115 25.2624 2.64327 25.2624Z" fill="#FFCCD7"/>
<path d="M35.457 9.03444C33.2118 3.7253 27.9551 0 21.8281 0C21.0224 0 20.2319 0.0650547 19.4612 0.189063C24.5515 1.00779 28.7733 4.42355 30.7231 9.03452C35.4398 10.5182 38.8607 14.9254 38.8607 20.1319C38.8607 21.4212 38.6505 22.6613 38.263 23.8202C38.2187 23.9526 38.1611 24.0777 38.094 24.1962C38.8106 24.7583 39.5992 25.2624 41.0137 25.2624C41.0197 25.2624 41.0256 25.2624 41.0316 25.2624C41.9276 25.2597 42.7128 24.67 42.9968 23.8203C43.3843 22.6614 43.5945 21.4213 43.5945 20.132C43.5946 14.9254 40.1736 10.5181 35.457 9.03444Z" fill="#FFB3CB"/>
<circle cx="27.1469" cy="9.11107" r="2.02305" fill="#7F7FBF"/>
<circle cx="14.9909" cy="7.08726" r="2.02305" fill="#53E7D3"/>
<circle cx="7.02281" cy="18.2342" r="2.02305" fill="#FFB125"/>
<circle cx="20.6009" cy="16.2113" r="2.02305" fill="#FF4C4C"/>
<circle cx="35.6788" cy="18.6665" r="2.02305" fill="#FF6991"/>
<path d="M27.5263 32.5342C27.5263 30.7741 26.0995 29.3472 24.3393 29.3472C23.3194 29.3472 22.4115 29.8263 21.8281 30.5717V38.7679C21.8281 38.7681 27.5263 36.5383 27.5263 32.5342Z" fill="#E1EFFB"/>
<path d="M17.0136 7.08763C17.0136 5.97036 16.1078 5.06458 14.9905 5.06458V9.11068C16.1078 9.11068 17.0136 8.2049 17.0136 7.08763Z" fill="#1BCCC7"/>
<path d="M22.6239 16.2113C22.6239 15.094 21.7181 14.1882 20.6009 14.1882V18.2343C21.7181 18.2343 22.6239 17.3286 22.6239 16.2113Z" fill="#F33A3A"/>
<path d="M37.7021 18.6662C37.7021 17.549 36.7963 16.6432 35.679 16.6432V20.6893C36.7963 20.6893 37.7021 19.7835 37.7021 18.6662Z" fill="#FF507E"/>
<path d="M29.1696 9.1107C29.1696 7.99343 28.2638 7.08765 27.1465 7.08765V11.1338C28.2639 11.1338 29.1696 10.228 29.1696 9.1107Z" fill="#7272AF"/>
<path d="M9.04629 18.2342C9.04629 17.117 8.14051 16.2112 7.02324 16.2112V20.2573C8.14051 20.2573 9.04629 19.3516 9.04629 18.2342Z" fill="#FF901D"/>
</svg>
