<svg width="50" height="50" viewBox="0 0 50 50" fill="none" xmlns="http://www.w3.org/2000/svg">
<circle cx="25" cy="25" r="25" fill="#D8AD8F"/>
<path d="M47.0395 26.7307C46.9944 25.816 46.7429 24.9046 46.3119 24.0957C46.1987 23.883 46.0809 23.6897 45.9669 23.5028C45.7779 23.1927 45.5638 22.8414 45.5587 22.6651C45.5561 22.5767 45.6013 22.3828 45.6411 22.2117C45.6654 22.1075 45.6895 22.0032 45.7105 21.9006C46.184 19.5988 45.3901 17.0693 43.5869 15.1342C42.7136 14.1971 41.7235 13.4196 40.6735 12.8302C40.4936 12.1634 40.1793 11.5389 39.7405 10.9882C39.0071 10.0661 37.9672 9.42368 36.812 9.17944C36.4665 9.10649 36.113 9.06938 35.7611 9.06938C35.6883 9.06938 35.6154 9.07095 35.5427 9.07407C34.6206 7.57993 33.1283 6.51724 31.3678 6.14585C30.9264 6.05308 30.4756 6.00601 30.0277 6.00601C29.0906 6.00601 28.1631 6.21382 27.316 6.60474C26.2752 5.50093 24.9272 4.74175 23.4075 4.42163C22.8953 4.31372 22.372 4.25903 21.8523 4.25903C19.0243 4.25903 16.4643 5.82163 15.1733 8.33257C14.8653 8.92661 14.6382 9.56548 14.4984 10.2302C14.4638 10.3939 14.4367 10.5471 14.4156 10.6985C14.3564 11.1011 14.3309 11.5074 14.3378 11.9126C13.6115 12.5355 13.0241 13.3149 12.6278 14.1987C12.3073 14.1495 11.9807 14.1226 11.6489 14.1226C8.06154 14.1226 5.14288 17.0412 5.14288 20.6287C5.14288 22.6973 6.14064 24.6613 7.81085 25.8816C8.93077 26.7014 10.2579 27.1347 11.6488 27.1347C13.0039 27.1347 14.2632 26.7178 15.3061 26.0063C15.7486 26.2131 16.2191 26.3726 16.7114 26.4765L17.2488 26.5899L20.3705 24.9242C20.6987 25.8392 21.2022 26.6347 21.6534 27.3474C21.7858 27.5564 21.9108 27.7538 22.0301 27.9511C22.6303 28.9452 22.8765 29.6851 22.8048 30.2783C22.7075 31.0766 22.5614 35.158 29.2544 37.1087C29.465 37.1707 29.6869 37.2314 29.9153 37.2896C31.532 37.7001 33.1009 37.9083 34.5783 37.9083C35.5165 37.9083 36.4294 37.8236 37.2916 37.6567C38.1526 37.4901 38.9828 37.2375 39.759 36.9058C43.0113 35.516 45.5743 32.7669 46.6142 29.5541C46.9441 28.5396 47.0831 27.616 47.0395 26.7307Z" fill="#C19476"/>
<path d="M18.5662 43.2757C15.3824 43.2757 12.3891 42.0358 10.1379 39.7845C5.49042 35.1372 5.49042 27.5754 10.1379 22.928C12.3891 20.6767 15.3824 19.4369 18.5662 19.4369C21.75 19.4369 24.7432 20.6767 26.9944 22.928C31.6419 27.5754 31.6419 35.1372 26.9944 39.7845C24.7432 42.0358 21.7499 43.2757 18.5662 43.2757Z" fill="#C19476"/>
<path fill-rule="evenodd" clip-rule="evenodd" d="M8.60156 25C8.60156 34.0422 15.9579 41.3984 25 41.3984C34.0421 41.3984 41.3984 34.0421 41.3984 25C41.3984 15.9579 34.0421 8.60156 25 8.60156C15.9579 8.60156 8.60156 15.9578 8.60156 25ZM10.1106 25C10.1106 16.7899 16.79 10.1106 25 10.1106C33.21 10.1106 39.8894 16.79 39.8894 25C39.8894 33.21 33.21 39.8894 25 39.8894C16.79 39.8894 10.1106 33.2101 10.1106 25Z" fill="#C19476"/>
<path d="M39.2626 14.8954C38.8672 16.7767 37.0603 17.999 35.1811 17.6892C35.1288 17.6801 35.0766 17.6711 35.0242 17.66C34.2103 17.4879 33.5212 17.0524 33.0242 16.4618L24.4971 21.0121L20.0232 23.3994L17.0231 25C14.8924 24.5503 13.3702 22.7988 13.1127 20.7515C13.0966 20.6177 13.0846 20.4828 13.0795 20.3471C13.0614 19.9397 13.0935 19.5241 13.1821 19.1067C13.5966 17.1378 15.1237 15.6902 16.9679 15.2777C16.8019 15.0463 16.6519 14.8018 16.5222 14.5473C16.4104 14.338 16.3149 14.1207 16.2304 13.8974C15.8803 12.9718 15.7556 11.9507 15.9095 10.9124C15.9266 10.7887 15.9487 10.6659 15.9749 10.5422C16.0886 10.002 16.2707 9.49494 16.5131 9.02707C17.7203 6.67902 20.3884 5.32785 23.0966 5.89826C24.7586 6.24835 26.1127 7.25441 26.9497 8.58742C28.0674 7.70412 29.5543 7.30675 31.0573 7.62267C32.7837 7.98683 34.1106 9.20617 34.6881 10.7434C35.2555 10.5653 35.8762 10.524 36.5 10.6559C37.3471 10.835 38.0594 11.2987 38.5594 11.9276C39.0211 12.507 39.3008 13.2264 39.337 13.9909C39.3501 14.2877 39.3269 14.5915 39.2626 14.8954Z" fill="#B9F268"/>
<path d="M39.2626 14.8954C38.8672 16.7766 37.0603 17.999 35.1811 17.6891C35.1288 17.68 35.0766 17.671 35.0242 17.6599C34.2103 17.4878 33.5212 17.0523 33.0242 16.4618L24.4971 21.0121L20.0232 23.3994C20.0152 23.332 20.0092 23.2646 20.0041 23.1961C19.5373 23.3018 19.0554 23.3571 18.5665 23.3571C16.6399 23.3571 14.823 22.51 13.5826 21.0322C13.3995 20.8139 13.2315 20.5855 13.0796 20.347C13.0615 19.9396 13.0936 19.5241 13.1822 19.1066C13.5967 17.1377 15.1238 15.6901 16.968 15.2776C16.8019 15.0462 16.652 14.8017 16.5223 14.5472C16.4105 14.3379 16.315 14.1207 16.2305 13.8973C15.8804 12.9717 15.7557 11.9506 15.9096 10.9124C16.7215 10.5482 17.6208 10.345 18.5665 10.345C21.0544 10.345 23.2194 11.7494 24.314 13.8068C26.6792 12.1478 29.7627 11.2696 33.2536 11.2696C34.6952 11.2696 36.1952 11.4205 37.7124 11.7183C37.9961 11.7737 38.2788 11.8441 38.5595 11.9276C39.0212 12.5071 39.3009 13.2264 39.3371 13.991C39.3501 14.2876 39.3269 14.5915 39.2626 14.8954Z" fill="#8BCC3F"/>
<path d="M16.6459 20.6288C16.6459 23.3884 14.4095 25.6258 11.6489 25.6258C10.5474 25.6258 9.52822 25.2686 8.70224 24.6639C7.45878 23.7554 6.65195 22.2867 6.65195 20.6287C6.65195 17.8691 8.88935 15.6317 11.6489 15.6317C14.0594 15.6317 16.0704 17.338 16.5413 19.6076C16.6097 19.9376 16.6459 20.2787 16.6459 20.6288Z" fill="#FB4239"/>
<path d="M16.6459 20.6289C16.6459 23.3884 14.4095 25.6258 11.6489 25.6258C10.5474 25.6258 9.52822 25.2687 8.70224 24.664C9.11669 24.0513 9.5956 23.4699 10.1379 22.9276C11.9045 21.162 14.1278 20.0181 16.5413 19.6077C16.6097 19.9376 16.6459 20.2788 16.6459 20.6289Z" fill="#E21717"/>
<path d="M11.6492 24.3218C11.2325 24.3218 10.8947 23.984 10.8947 23.5673V17.6908C10.8947 17.2741 11.2325 16.9363 11.6492 16.9363C12.0659 16.9363 12.4037 17.2741 12.4037 17.6908V23.5673C12.4038 23.984 12.0659 24.3218 11.6492 24.3218Z" fill="#E21717"/>
<path d="M14.5875 21.3836H8.71094C8.29424 21.3836 7.95645 21.0458 7.95645 20.6291C7.95645 20.2124 8.29424 19.8746 8.71094 19.8746H14.5875C15.0042 19.8746 15.342 20.2124 15.342 20.6291C15.3421 21.0458 15.0042 21.3836 14.5875 21.3836Z" fill="#E21717"/>
<path d="M23.5634 16.8511C23.5634 18.0744 23.1237 19.1942 22.3943 20.0623C21.4778 21.1539 20.1025 21.8481 18.5664 21.8481C17.0302 21.8481 15.655 21.1539 14.7385 20.0623C14.0091 19.1942 13.5694 18.0744 13.5694 16.8511C13.5694 14.0915 15.8068 11.8541 18.5664 11.8541C21.326 11.8541 23.5634 14.0915 23.5634 16.8511Z" fill="#FB4239"/>
<path d="M22.3943 20.0624C21.4778 21.154 20.1025 21.8482 18.5664 21.8482C17.0302 21.8482 15.655 21.154 14.7385 20.0624C15.9557 19.6499 17.2435 19.4366 18.5664 19.4366C19.8883 19.4366 21.178 19.6499 22.3943 20.0624Z" fill="#E21717"/>
<path d="M18.5661 20.544C18.1494 20.544 17.8116 20.2062 17.8116 19.7895V13.9129C17.8116 13.4962 18.1494 13.1584 18.5661 13.1584C18.9828 13.1584 19.3206 13.4962 19.3206 13.9129V19.7895C19.3207 20.2061 18.9828 20.544 18.5661 20.544Z" fill="#E21717"/>
<path d="M21.5044 17.6057H15.6278C15.2111 17.6057 14.8734 17.2679 14.8734 16.8512C14.8734 16.4345 15.2111 16.0967 15.6278 16.0967H21.5044C21.9211 16.0967 22.2589 16.4345 22.2589 16.8512C22.2589 17.2679 21.9211 17.6057 21.5044 17.6057Z" fill="#E21717"/>
<path d="M24.9905 15.1744C24.3368 15.6548 23.7246 16.206 23.2653 16.8749C22.8328 17.5046 22.5469 18.222 22.2869 18.9405C21.6886 20.594 21.2068 22.401 21.6873 24.0925C22.006 25.2142 22.7185 26.1735 23.3218 27.1714C23.9251 28.1693 24.4428 29.303 24.3024 30.4606C24.2068 31.2482 24.362 34.3218 30.2864 35.8274C33.219 36.5726 36.3839 36.7066 39.1663 35.5176C41.9486 34.3287 44.247 31.9656 45.1797 29.0872C45.4183 28.351 45.5701 27.5784 45.5321 26.8054C45.498 26.109 45.3081 25.4208 44.9804 24.8053C44.6169 24.1228 44.0721 23.482 44.0498 22.7091C44.039 22.3325 44.1568 21.9658 44.2326 21.5966C44.6304 19.6602 43.831 17.6094 42.4832 16.1631C41.1355 14.7169 39.3608 13.5793 37.4208 13.1987C32.4592 12.2254 27.9935 12.9671 24.9905 15.1744Z" fill="#F9E8D4"/>
<circle cx="36.3126" cy="24.5662" r="4.87783" fill="#FEC007"/>
<path d="M45.1791 29.0874C44.2475 31.9657 41.9487 34.3289 39.166 35.518C38.4668 35.8168 37.7434 36.0321 37.0051 36.1749C34.8069 36.6005 32.4819 36.3842 30.2867 35.8269C30.0774 35.7736 29.8753 35.7182 29.6801 35.6609C24.3511 34.1076 24.2102 31.2203 24.3028 30.4607C24.4427 29.3028 23.9246 28.1689 23.322 27.1709C22.7183 26.173 22.006 25.2142 21.6872 24.0924C21.3955 23.0663 21.4578 21.9958 21.6872 20.9446C21.7616 20.6015 21.8532 20.2605 21.9558 19.9235C22.0585 19.5915 22.1701 19.2635 22.2868 18.9406C22.5473 18.2223 22.8331 17.504 23.2657 16.8742C23.7245 16.2062 24.3371 15.6548 24.9911 15.174C27.9931 12.9667 32.4599 12.2252 37.4217 13.1992C39.3603 13.5794 41.1349 14.7163 42.483 16.1629C43.831 17.6096 44.6308 19.6599 44.2325 21.5965C44.157 21.9658 44.0393 22.332 44.0504 22.7092C44.0725 23.4819 44.6168 24.1227 44.98 24.8048C45.3079 25.4206 45.498 26.1096 45.5323 26.8048C45.5704 27.5785 45.4185 28.351 45.1791 29.0874Z" fill="#F9E8D4"/>
<path d="M29.6801 35.661C24.3511 34.1077 24.2102 31.2204 24.3028 30.4608C24.4427 29.3029 23.9246 28.169 23.322 27.171C22.7183 26.1731 22.006 25.2143 21.6872 24.0925C21.3955 23.0664 21.4578 21.9959 21.6872 20.9447C21.7616 20.6016 21.8532 20.2606 21.9558 19.9236C23.8401 20.479 25.5665 21.5 26.994 22.9276C30.4306 26.3642 31.326 31.3944 29.6801 35.661Z" fill="#EFCDB1"/>
<circle cx="36.3126" cy="24.5662" r="4.87783" fill="#FEC007"/>
<circle cx="35.5897" cy="23.1348" r="1.6332" fill="#F9DE69"/>
<path d="M27.5093 21.795C27.0926 21.795 26.7548 21.4572 26.7548 21.0405V20.9461C26.7548 20.5294 27.0926 20.1917 27.5093 20.1917C27.926 20.1917 28.2638 20.5294 28.2638 20.9461V21.0405C28.2639 21.4571 27.926 21.795 27.5093 21.795Z" fill="#EFCDB1"/>
<path d="M30.1402 17.2404C29.7235 17.2404 29.3857 16.9026 29.3857 16.4859V16.3916C29.3857 15.9749 29.7235 15.6371 30.1402 15.6371C30.5569 15.6371 30.8947 15.9749 30.8947 16.3916V16.4859C30.8947 16.9026 30.5569 17.2404 30.1402 17.2404Z" fill="#EFCDB1"/>
<circle cx="18.5661" cy="31.3563" r="10.4104" fill="#B96340"/>
<path d="M25.9276 38.7178C21.8621 42.7833 15.2705 42.7833 11.205 38.7178C10.9531 38.4659 10.7163 38.2034 10.495 37.9338C14.5848 41.2737 20.62 41.0375 24.4337 37.2238C28.2474 33.4102 28.4836 27.3748 25.1437 23.2852C25.4133 23.5063 25.6758 23.7433 25.9275 23.9951C29.9932 28.0606 29.9932 34.6522 25.9276 38.7178Z" fill="#A24223"/>
<path d="M16.6499 36.4185C16.2332 36.4185 15.8954 36.0807 15.8954 35.664V35.5697C15.8954 35.153 16.2332 34.8152 16.6499 34.8152C17.0666 34.8152 17.4044 35.153 17.4044 35.5697V35.664C17.4044 36.0806 17.0666 36.4185 16.6499 36.4185Z" fill="#A24223"/>
<path d="M20.3848 37.2007C19.9681 37.2007 19.6303 36.8629 19.6303 36.4462V36.3519C19.6303 35.9352 19.9681 35.5974 20.3848 35.5974C20.8015 35.5974 21.1393 35.9352 21.1393 36.3519V36.4462C21.1393 36.8628 20.8015 37.2007 20.3848 37.2007Z" fill="#A24223"/>
<path d="M23.2897 36.3714C22.873 36.3714 22.5352 36.0336 22.5352 35.6169V35.5226C22.5352 35.1059 22.873 34.7681 23.2897 34.7681C23.7064 34.7681 24.0442 35.1059 24.0442 35.5226V35.6169C24.0442 36.0335 23.7064 36.3714 23.2897 36.3714Z" fill="#A24223"/>
<path d="M20.3848 29.9395C19.9681 29.9395 19.6303 29.6017 19.6303 29.185V29.0907C19.6303 28.674 19.9681 28.3362 20.3848 28.3362C20.8015 28.3362 21.1393 28.674 21.1393 29.0907V29.185C21.1393 29.6017 20.8015 29.9395 20.3848 29.9395Z" fill="#A24223"/>
<path d="M23.6922 32.1579C23.2755 32.1579 22.9377 31.8201 22.9377 31.4034V31.3091C22.9377 30.8924 23.2755 30.5546 23.6922 30.5546C24.1089 30.5546 24.4467 30.8924 24.4467 31.3091V31.4034C24.4467 31.8201 24.1089 32.1579 23.6922 32.1579Z" fill="#A24223"/>
<path d="M18.6293 43.1528C18.2126 43.1528 17.8748 42.815 17.8748 42.3983V42.3039C17.8748 41.8872 18.2126 41.5494 18.6293 41.5494C19.046 41.5494 19.3838 41.8872 19.3838 42.3039V42.3983C19.3838 42.815 19.046 43.1528 18.6293 43.1528Z" fill="#A24223"/>
<path d="M22.2837 44.319C21.867 44.319 21.5292 43.9812 21.5292 43.5645V43.4702C21.5292 43.0535 21.867 42.7157 22.2837 42.7157C22.7004 42.7157 23.0382 43.0535 23.0382 43.4702V43.5645C23.0382 43.9812 22.7004 44.319 22.2837 44.319Z" fill="#A24223"/>
<path d="M5.48292 28.5652C5.06622 28.5652 4.72842 28.2274 4.72842 27.8107V27.7164C4.72842 27.2997 5.06622 26.9619 5.48292 26.9619C5.89962 26.9619 6.23741 27.2997 6.23741 27.7164V27.8107C6.23741 28.2273 5.89962 28.5652 5.48292 28.5652Z" fill="#A24223"/>
</svg>
