<svg width="50" height="50" viewBox="0 0 50 50" fill="none" xmlns="http://www.w3.org/2000/svg">
<circle cx="24.9718" cy="24.916" r="24.9027" fill="#CDD6E0"/>
<circle cx="24.9718" cy="24.9161" r="17.9507" fill="#ACB3BA"/>
<path d="M25.6981 0.0133614C25.1794 0.0133614 24.8681 0.532136 24.8681 0.947214V10.3895C24.8681 10.9083 24.453 11.3234 23.9342 11.3234C23.4155 11.3234 23.0004 10.9083 23.0004 10.3895V0.947214C23.0004 0.428439 22.6891 0.0133614 22.1703 0.0133614C21.6516 -0.0904323 21.1327 0.428439 21.1327 0.947214V10.3895C21.1327 10.9083 20.7176 11.3234 20.1988 11.3234C19.6801 11.3234 19.265 10.9083 19.265 10.3895V0.947214C19.265 0.428439 18.9537 0.0133614 18.4349 0.0133614C17.9161 -0.0904323 17.3973 0.428439 17.3973 0.947214V10.3895C17.3973 10.9083 16.9822 11.3234 16.4634 11.3234C15.9446 11.3234 15.5296 10.9083 15.5296 10.3895V0.947214C15.5296 0.428439 15.2183 0.0133614 14.6995 0.0133614C14.1807 -0.0904323 13.6619 0.428439 13.6619 0.947214V11.4271C13.6619 13.191 14.3882 14.7474 15.5296 15.9925C17.3973 17.8602 18.4349 20.4543 18.2273 23.0483L16.1521 45.4607C16.1521 45.6682 16.1521 45.9795 16.1521 46.1871C16.3596 48.4699 18.5386 50.13 20.8214 49.715C22.8966 49.2999 24.2455 47.3285 24.038 45.2532L22.0665 22.9446C21.859 20.2468 22.8966 17.7566 24.7643 15.8888C25.9056 14.7475 26.632 13.0873 26.632 11.3234V0.947214C26.632 0.428439 26.2169 0.0133614 25.6981 0.0133614Z" fill="#F2F2F2"/>
<path d="M22.1702 23.3596H18.2273L16.2558 45.4608C16.2558 45.6683 16.2558 45.9796 16.2558 46.1871C16.4633 48.4699 18.6423 50.13 20.9251 49.7151C23.0003 49.3 24.3492 47.3286 24.1417 45.2533L22.1702 23.3596Z" fill="#40596B"/>
<path d="M34.6216 0.0133057C34.6216 0.0133057 30.1598 1.77722 28.2921 15.1624C27.5658 20.6617 28.7072 26.0574 30.7824 31.1417C30.9899 31.6605 31.0937 32.2831 31.0937 32.9056L29.8485 46.2908C29.8485 46.4983 29.8485 46.7059 29.8485 46.9134C30.056 48.6773 31.6125 50.0262 33.4802 49.8188C35.1404 49.6113 36.2817 47.8473 36.1779 46.1871L34.6216 0.0133057Z" fill="#F2F2F2"/>
<path d="M31.0938 32.802C31.0938 32.9058 31.0938 32.9058 31.0938 33.0095L29.8486 46.3947C29.8486 46.6022 29.8486 46.8098 29.8486 47.0173C30.0561 48.7812 31.6125 50.1301 33.4802 49.9226C35.1405 49.7151 36.2818 47.9511 36.178 46.291L35.7629 32.9058H31.0937V32.802H31.0938Z" fill="#FF7058"/>
</svg>
